# xmcd
# 
# Track frame offsets:
#	150
#	17705
#	30347
#
# Disc length: 665 seconds
#
# Revision: 1
# Processed by: cddbd v1.4PL0 Copyright (c) Steve Scherf et al.
# Submitted via: Audio-CD-Archiv 2.10.446
#
DISCID=15029703
DTITLE=Judd, Wynonna - I Saw The Light
DYEAR=1900
DGENRE=country
TTITLE0=I Saw The Light
TTITLE1=When I Reach The Place I'm Goin
TTITLE2=My Strongest Weakness
EXTD=
EXTT0=
EXTT1=
EXTT2=
PLAYORDER=
